<svg width="22" height="22" viewBox="0 0 22 22" fill="none" xmlns="http://www.w3.org/2000/svg">
<path d="M10.8856 2.05325C11.1256 1.60008 11.0988 1.05353 10.7923 0.640346C10.499 0.213834 9.97923 0.0140366 9.47275 0.107336C5.06101 0.907046 1.71547 4.77197 1.71547 9.42362C1.71547 11.7828 2.58212 13.9555 4.0216 15.6082C4.50143 16.168 5.341 16.2345 5.9008 15.7547C6.44727 15.2748 6.51372 14.4222 6.03389 13.8758C4.99427 12.6762 4.38117 11.1163 4.38117 9.42362C4.38117 6.97117 5.66093 4.82581 7.60689 3.62624C7.55357 3.99944 7.52684 4.38578 7.52684 4.77231C7.52684 9.35732 11.2455 13.0759 15.8305 13.0759C16.217 13.0759 16.6037 13.0492 16.9769 12.9959C16.7769 13.3024 16.5637 13.5959 16.3371 13.8758C15.8573 14.4222 15.9104 15.2748 16.4702 15.7547C17.03 16.2345 17.8699 16.168 18.3497 15.6082C19.4293 14.3687 20.1889 12.8228 20.4954 11.13C20.5887 10.6235 20.3889 10.1034 19.9624 9.8102C19.5493 9.50364 19.0027 9.47722 18.5495 9.71713C17.7498 10.157 16.8168 10.4102 15.8305 10.4102C12.7116 10.4102 10.1925 7.89118 10.1925 4.77231C10.1925 3.786 10.4458 2.86628 10.8856 2.05325Z" fill="#F2C14E"/>
<path d="M20.5224 21.4064C21.2555 21.4064 21.8553 20.8067 21.8553 20.0736C21.8553 19.3405 21.2555 18.7407 20.5224 18.7407H1.86254C1.12948 18.7407 0.529694 19.3405 0.529694 20.0736C0.529694 20.8067 1.12948 21.4064 1.86254 21.4064H20.5224Z" fill="#F2C14E"/>
</svg>
