<svg width="29" height="28" viewBox="0 0 29 28" fill="none" xmlns="http://www.w3.org/2000/svg">
<path d="M14.5662 5.34058e-05C15.3204 5.34058e-05 15.9375 0.617172 15.9375 1.37143V2.7428C15.9375 3.49706 15.3204 4.11418 14.5662 4.11418C13.8119 4.11418 13.1948 3.49706 13.1948 2.7428V1.37143C13.1948 0.617172 13.8119 5.34058e-05 14.5662 5.34058e-05Z" fill="#F2C14E"/>
<path d="M14.5662 23.3134C15.3204 23.3134 15.9375 23.9305 15.9375 24.6848V26.0562C15.9375 26.8104 15.3204 27.4275 14.5662 27.4275C13.8119 27.4275 13.1948 26.8104 13.1948 26.0562V24.6848C13.1948 23.9305 13.8119 23.3134 14.5662 23.3134Z" fill="#F2C14E"/>
<path d="M26.9085 15.0852C27.6628 15.0852 28.2799 14.4681 28.2799 13.7138C28.2799 12.9596 27.6628 12.3425 26.9085 12.3425H25.5371C24.7829 12.3425 24.1658 12.9596 24.1658 13.7138C24.1658 14.4681 24.7829 15.0852 25.5371 15.0852H26.9085Z" fill="#F2C14E"/>
<path d="M4.96653 13.7138C4.96653 14.4681 4.34941 15.0852 3.59515 15.0852H2.22378C1.46952 15.0852 0.852402 14.4681 0.852402 13.7138C0.852402 12.9596 1.46952 12.3425 2.22378 12.3425H3.59515C4.34941 12.3425 4.96653 12.9596 4.96653 13.7138Z" fill="#F2C14E"/>
<path d="M21.3541 22.4355L22.3277 23.4091C22.8625 23.9439 23.7267 23.9439 24.2616 23.4091C24.7964 22.8743 24.7964 22.0108 24.2616 21.4759L23.2879 20.5023C22.7531 19.9675 21.8889 19.9675 21.3541 20.5023C20.8192 21.0371 20.8192 21.9007 21.3541 22.4355Z" fill="#F2C14E"/>
<path d="M7.77828 6.92519C7.24345 7.46002 6.37927 7.46002 5.84443 6.92519L4.87081 5.95157C4.33597 5.41673 4.33597 4.55322 4.87081 4.01838C5.40564 3.48355 6.26982 3.48355 6.80466 4.01838L7.77828 4.99201C8.31312 5.52684 8.31312 6.39035 7.77828 6.92519Z" fill="#F2C14E"/>
<path d="M4.87081 21.4759C4.33597 22.0108 4.33597 22.8743 4.87081 23.4091C5.40564 23.9439 6.26982 23.9439 6.80466 23.4091L7.77828 22.4355C8.31312 21.9007 8.31312 21.0371 7.77828 20.5023C7.24345 19.9675 6.37927 19.9675 5.84443 20.5023L4.87081 21.4759Z" fill="#F2C14E"/>
<path d="M21.3541 6.92519C20.8192 6.39035 20.8192 5.52684 21.3541 4.99201L22.3277 4.01838C22.8625 3.48355 23.7267 3.48355 24.2616 4.01838C24.7964 4.55322 24.7964 5.41673 24.2616 5.95157L23.2879 6.92519C22.7531 7.46002 21.8889 7.46002 21.3541 6.92519Z" fill="#F2C14E"/>
<path fill-rule="evenodd" clip-rule="evenodd" d="M14.5662 6.17113C10.3972 6.17113 7.02361 9.54471 7.02361 13.7137C7.02361 17.8827 10.3972 21.2562 14.5662 21.2562C18.7351 21.2562 22.1087 17.8827 22.1087 13.7137C22.1087 9.54471 18.7351 6.17113 14.5662 6.17113ZM9.76635 13.7137C9.76635 11.0669 11.9194 8.91388 14.5662 8.91388C17.2129 8.91388 19.366 11.0669 19.366 13.7137C19.366 16.3604 17.2129 18.5135 14.5662 18.5135C11.9194 18.5135 9.76635 16.3604 9.76635 13.7137Z" fill="#F2C14E"/>
</svg>
