<svg width="29" height="28" viewBox="0 0 29 28" fill="none" xmlns="http://www.w3.org/2000/svg">
<path d="M15.9375 1.41373C15.9375 0.659477 15.3204 0.0423584 14.5662 0.0423584C13.8119 0.0423584 13.1948 0.659477 13.1948 1.41373V2.78511C13.1948 3.53936 13.8119 4.15648 14.5662 4.15648C15.3204 4.15648 15.9375 3.53936 15.9375 2.78511V1.41373Z" fill="#F2C14E"/>
<path d="M15.9376 19.2417C15.9376 18.4874 15.3204 17.8703 14.5662 17.8703C13.8119 17.8703 13.1948 18.4874 13.1948 19.2417V22.7933L12.7971 22.3822C12.2622 21.8473 11.3846 21.8473 10.8498 22.3822C10.315 22.917 10.315 23.7946 10.8498 24.3294L13.5926 27.0722C14.1274 27.607 15.005 27.607 15.5398 27.0722L18.2826 24.3294C18.8174 23.7946 18.8174 22.917 18.2826 22.3822C17.7477 21.8473 16.8701 21.8473 16.3353 22.3822L15.9376 22.7933V19.2417Z" fill="#F2C14E"/>
<path d="M26.9085 15.1274C27.6628 15.1274 28.2799 14.5103 28.2799 13.756C28.2799 13.0017 27.6628 12.3846 26.9085 12.3846H25.5371C24.7829 12.3846 24.1658 13.0017 24.1658 13.756C24.1658 14.5103 24.7829 15.1274 25.5371 15.1274H26.9085Z" fill="#F2C14E"/>
<path d="M4.96653 13.756C4.96653 14.5103 4.34941 15.1274 3.59515 15.1274H2.22378C1.46952 15.1274 0.852402 14.5103 0.852402 13.756C0.852402 13.0017 1.46952 12.3846 2.22378 12.3846H3.59515C4.34941 12.3846 4.96653 13.0017 4.96653 13.756Z" fill="#F2C14E"/>
<path d="M24.2616 21.5184L23.2879 20.5447C22.7531 20.0099 21.8889 20.0099 21.3541 20.5447C20.8192 21.0796 20.8192 21.9431 21.3541 22.4779L22.3277 23.4515C22.8625 23.9864 23.7267 23.9864 24.2616 23.4515C24.7964 22.9167 24.7964 22.0532 24.2616 21.5184Z" fill="#F2C14E"/>
<path d="M7.77828 6.96749C7.24345 7.50233 6.37927 7.50233 5.84443 6.96749L4.87081 5.99387C4.33597 5.45903 4.33597 4.59552 4.87081 4.06069C5.40564 3.52585 6.26982 3.52585 6.80466 4.06069L7.77828 5.03431C8.31312 5.56915 8.31312 6.43266 7.77828 6.96749Z" fill="#F2C14E"/>
<path d="M4.87081 21.5184C4.33597 22.0532 4.33597 22.9167 4.87081 23.4515C5.40564 23.9864 6.26982 23.9864 6.80466 23.4515L7.77828 22.4779C8.31312 21.9431 8.31312 21.0796 7.77828 20.5447C7.24345 20.0099 6.37927 20.0099 5.84443 20.5447L4.87081 21.5184Z" fill="#F2C14E"/>
<path d="M21.3541 6.96749C20.8192 6.43266 20.8192 5.56915 21.3541 5.03431L22.3277 4.06069C22.8625 3.52585 23.7267 3.52585 24.2616 4.06069C24.7964 4.59552 24.7964 5.45903 24.2616 5.99387L23.2879 6.96749C22.7531 7.50233 21.8889 7.50233 21.3541 6.96749Z" fill="#F2C14E"/>
<path d="M10.3007 15.9642C9.36815 14.154 9.65632 11.8774 11.1786 10.3689C13.0436 8.49011 16.088 8.49011 17.9531 10.3689C19.4753 11.8774 19.7635 14.154 18.8309 15.9642C18.4881 16.6362 18.7486 17.4595 19.4205 17.8023C20.0925 18.1589 20.9288 17.8843 21.2717 17.2124C22.739 14.3736 22.2865 10.8078 19.9003 8.42165C16.9518 5.47319 12.1798 5.47319 9.23131 8.42165C6.84511 10.8078 6.39256 14.3736 7.85993 17.2124C8.20277 17.8843 9.03911 18.1589 9.71109 17.8023C10.3831 17.4595 10.6435 16.6362 10.3007 15.9642Z" fill="#F2C14E"/>
</svg>
