<svg width="97" height="88" viewBox="0 0 97 88" fill="none" xmlns="http://www.w3.org/2000/svg">
<path fill-rule="evenodd" clip-rule="evenodd" d="M27.0611 15.7298C28.6278 14.9471 29.9396 13.7042 30.8334 12.1548C29.9783 12.7795 29.0248 13.2439 28.0156 13.5269C25.7511 14.1704 23.334 13.8533 21.2942 12.6453C19.2549 11.4371 17.7603 9.43695 17.139 7.08418C16.8291 5.89804 16.7534 4.65911 16.9157 3.44175C17.0784 2.22443 17.4759 1.05373 18.0843 0C16.6048 1.08145 15.4813 2.60963 14.8659 4.37729C14.2506 6.14495 14.1731 8.06657 14.6439 9.88157C15.1102 11.6221 16.0578 13.1821 17.3683 14.3689C18.2772 15.1917 19.3333 15.8101 20.4696 16.1926C20.4519 16.2091 20.4345 16.2261 20.4177 16.2435C20.1743 16.4955 20.0371 16.8373 20.0357 17.1943V20.0924C20.0366 20.4495 20.1743 20.7917 20.4172 21.0439C20.6606 21.2962 20.9898 21.4382 21.3334 21.439H22.1977C22.5404 21.4373 22.8686 21.2949 23.1111 21.0427C23.3531 20.7905 23.4898 20.449 23.4907 20.0927V17.1943C23.4898 17.0014 23.4498 16.813 23.3745 16.6406C24.6467 16.6159 25.9047 16.3076 27.0611 15.7298ZM21.1068 29.8706H22.4214C22.947 29.8697 23.4507 29.6532 23.8226 29.2675C24.1945 28.8819 24.4047 28.3589 24.407 27.8127V23.3773C24.4051 22.9534 24.2779 22.5403 24.0428 22.194C23.8075 21.8477 23.4753 21.5851 23.0914 21.4416C22.8517 21.6828 22.5308 21.8177 22.1972 21.8181H21.3329C20.9984 21.8187 20.6766 21.6836 20.4354 21.4416C20.0521 21.5852 19.7203 21.848 19.4851 22.1943C19.2503 22.5405 19.1231 22.9535 19.1218 23.3773V27.8127C19.1241 28.3589 19.3338 28.8819 19.7057 29.2675C20.0777 29.6532 20.5813 29.8702 21.1068 29.8706Z" fill="#FFB625"/>
<path fill-rule="evenodd" clip-rule="evenodd" d="M26.9006 35.1951C26.9006 36.3098 26.5824 37.3994 25.9867 38.3266C25.9046 38.454 25.8176 38.5781 25.726 38.6979C31.4409 39.8036 36.3847 43.2794 39.6063 48.0547C43.1302 53.4965 39.3379 60.9087 33.0171 60.9087H32.838C32.8485 59.4268 32.5754 57.9578 32.0343 56.5872C31.4938 55.2163 30.6957 53.9713 29.6874 52.9238C28.6792 51.8764 27.4809 51.0478 26.1617 50.4864C24.8426 49.9246 23.4291 49.6418 22.0033 49.6536C19.1336 49.6617 16.3827 50.8498 14.353 52.9584C12.3229 55.0675 11.1783 57.9256 11.169 60.9087C11.169 66.8209 15.5942 71.6052 21.1036 72.1695H36.7652L46.7548 67.7585C46.9444 67.6746 47.1518 67.641 47.3573 67.6604C47.5629 67.6799 47.7612 67.7523 47.9335 67.8708C48.1054 67.9892 48.2471 68.1503 48.3447 68.3393C48.4426 68.5283 48.4937 68.7401 48.4937 68.9547V72.1695H53.333C53.5874 72.0794 53.8212 71.9368 54.0213 71.7502C54.2205 71.5631 54.3814 71.3362 54.4939 71.0827C54.6062 70.8293 54.6676 70.5545 54.6745 70.2754C54.6813 69.9964 54.6334 69.7188 54.5341 69.4597C53.5126 66.7722 52.9907 63.908 52.9958 61.0181C52.9985 55.0211 55.2921 49.2708 59.3721 45.0304C63.4521 40.79 68.9851 38.4066 74.7547 38.4038C80.5248 38.4038 86.0588 40.7862 90.1389 45.0262C94.219 49.2671 96.511 55.0182 96.511 61.0153C96.511 67.0123 94.219 72.764 90.1389 77.0044C86.0588 81.2448 80.5248 83.6273 74.7547 83.6273H48.4937V86.2484C48.4937 86.4633 48.4426 86.674 48.3447 86.8636C48.2471 87.0532 48.1058 87.2139 47.9335 87.3316C47.7612 87.45 47.5629 87.5228 47.3573 87.5431C47.1518 87.5617 46.9444 87.5279 46.7548 87.445L38.0998 83.622L21.7358 83.4298C9.27868 83.4298 -0.923707 72.3557 0.0664971 59.2227C0.728243 49.1439 7.97039 40.772 17.2999 38.7885C16.7283 38.0708 16.3349 37.2142 16.159 36.2947C15.9497 35.2013 16.0569 34.0677 16.4676 33.0382C16.8778 32.0083 17.5729 31.1281 18.4649 30.5089C19.3564 29.8893 20.4052 29.5586 21.4778 29.5586C22.1898 29.5586 22.8949 29.7045 23.5531 29.9878C24.2108 30.2711 24.8089 30.6861 25.3121 31.2095C25.8158 31.733 26.2151 32.3541 26.4876 33.0382C26.7602 33.7218 26.9006 34.4552 26.9006 35.1951ZM68.7358 70.3773C70.5175 71.6143 72.6124 72.2742 74.7547 72.2732C77.6241 72.2638 80.3731 71.0747 82.4021 68.966C84.4304 66.8574 85.5752 64.0003 85.5841 61.0181C85.5849 58.7915 84.9498 56.6142 83.7594 54.7625C82.5699 52.9106 80.8781 51.4671 78.8986 50.6148C76.9194 49.7626 74.7411 49.539 72.6398 49.9739C70.538 50.4078 68.6077 51.4799 67.0926 53.0546C65.5779 54.6293 64.546 56.6355 64.128 58.82C63.7105 61.0039 63.9247 63.2679 64.7451 65.3248C65.5656 67.3823 66.9541 69.1403 68.7358 70.3773Z" fill="#1D785A"/>
<path d="M82.0769 28.6654C82.0769 30.171 81.6469 31.6424 80.8427 32.894C80.0377 34.1461 78.8936 35.1215 77.5554 35.6976C76.2171 36.2741 74.7448 36.4248 73.3241 36.131C71.9033 35.8374 70.5983 35.1126 69.5741 34.0481C68.5499 32.9831 67.8525 31.6268 67.5695 30.1502C67.2869 28.6734 67.4318 27.1433 67.9865 25.7524C68.5408 24.3614 69.4793 23.1725 70.684 22.3361C71.8883 21.4996 73.3045 21.0532 74.7531 21.0532C76.6952 21.0532 78.5582 21.8552 79.9315 23.2828C81.3053 24.7103 82.0769 26.6463 82.0769 28.6654Z" fill="#79939E"/>
</svg>
