<svg width="20" height="20" viewBox="0 0 20 20" fill="none" xmlns="http://www.w3.org/2000/svg">
<path fill-rule="evenodd" clip-rule="evenodd" d="M9.78237 0.700976C10.0568 1.07081 10.0807 1.57225 9.86597 1.97787C9.38876 2.82491 9.12616 3.80306 9.12616 4.84098C9.12616 8.13369 11.7985 10.806 15.0912 10.806C16.1291 10.806 17.1073 10.5434 17.9543 10.0662C18.3599 9.85148 18.8611 9.87572 19.2309 10.1501C19.6008 10.4245 19.7918 10.8775 19.7083 11.3309C18.8971 15.7808 15.0077 19.1571 10.3192 19.1571C5.04606 19.1571 0.775085 14.8861 0.775085 9.61302C0.775085 4.92449 4.15138 1.03514 8.6013 0.223888C9.05465 0.140377 9.50798 0.331143 9.78237 0.700976ZM6.8715 3.33806C4.66443 4.55494 3.16111 6.90489 3.16111 9.61302C3.16111 13.5619 6.37031 16.7711 10.3192 16.7711C13.0273 16.7711 15.3775 15.2681 16.5944 13.061C16.1053 13.1445 15.6042 13.1921 15.0912 13.1921C10.4743 13.1921 6.74014 9.45793 6.74014 4.84098C6.74014 4.32798 6.78799 3.8272 6.8715 3.33806Z" fill="#F2C14E"/>
</svg>
